<svg width="300" height="300" viewBox="0 0 300 300" fill="none" xmlns="http://www.w3.org/2000/svg">
<circle cx="150" cy="150" r="150" fill="#E37F2A"/>
<path fill-rule="evenodd" clip-rule="evenodd" d="M81 41V260H125.643V180.2H155.107C170.385 180.2 183.679 177.3 194.988 171.5C206.298 165.7 215.127 157.6 221.476 147.2C227.825 136.6 231 124.4 231 110.6C231 96.6 227.825 84.4 221.476 74C219.078 69.9444 216.272 66.2386 213.059 62.8825L202.079 72.6574C205.508 73.2548 208.353 74.5523 210.613 76.55C213.887 79.4 215.524 83.275 215.524 88.175V92.75C215.524 95.95 214.78 98.75 213.292 101.15C211.853 103.5 209.77 105.325 207.042 106.625C204.313 107.875 201.089 108.5 197.369 108.5C193.649 108.5 190.425 107.875 187.696 106.625C187.115 106.343 186.561 106.036 186.035 105.704C186.25 107.269 186.357 108.901 186.357 110.6C186.357 119.4 183.48 126.5 177.726 131.9C172.171 137.1 164.631 139.7 155.107 139.7H125.643V81.5H155.107C164.631 81.5 172.171 84.2 177.726 89.6C178.817 90.5854 179.804 91.6354 180.687 92.75H190.375C190.375 94.75 190.97 96.325 192.161 97.475C193.401 98.575 195.137 99.125 197.369 99.125C199.651 99.125 201.387 98.575 202.577 97.475C203.768 96.375 204.363 94.8 204.363 92.75V88.25C204.363 86.2 203.743 84.625 202.503 83.525C201.313 82.375 199.601 81.8 197.369 81.8H190.97V72.125L201.908 62.375H181.818V53H200.853C198.982 51.8278 197.027 50.7278 194.988 49.7C183.679 43.9 170.385 41 155.107 41H81Z" fill="white"/>
</svg>
